<svg width="24" height="24" viewBox="0 0 24 24" fill="none" xmlns="http://www.w3.org/2000/svg">
<path fill-rule="evenodd" clip-rule="evenodd" d="M7 11C7 8.23858 9.23858 6 12 6C14.1933 6 16.0592 7.41281 16.7323 9.38094L16.9246 9.94298L17.5101 10.043C18.9238 10.2846 20 11.5176 20 13C20 14.6569 18.6569 16 17 16H15V18H17C19.7614 18 22 15.7614 22 13C22 10.731 20.4895 8.81652 18.4192 8.20456C17.3405 5.7309 14.8735 4 12 4C8.43478 4 5.49209 6.66532 5.05578 10.1121C3.30232 10.5364 2 12.1161 2 14C2 16.2091 3.79086 18 6 18H9V16H6C4.89543 16 4 15.1046 4 14C4 12.8954 4.89543 12 6 12H7V11Z" fill="black"/>
<path d="M12 12L12 20M12 12L10 14M12 12L14 14" stroke="black" stroke-width="2" stroke-linecap="round" stroke-linejoin="round"/>
</svg>
